<?xml version="1.0" encoding="utf-8"?>
<!-- Generator: Adobe Illustrator 17.1.0, SVG Export Plug-In . SVG Version: 6.00 Build 0)  -->
<!DOCTYPE svg PUBLIC "-//W3C//DTD SVG 1.1//EN" "http://www.w3.org/Graphics/SVG/1.1/DTD/svg11.dtd">
<svg version="1.1" id="Layer_1" xmlns="http://www.w3.org/2000/svg" xmlns:xlink="http://www.w3.org/1999/xlink" x="0px" y="0px"
	 viewBox="0 0 531.2 115.9" enable-background="new 0 0 531.2 115.9" xml:space="preserve">
<g>
	<g>
		<defs>
			<rect id="SVGID_1_" x="0" y="0" width="531.2" height="115.9"/>
		</defs>
		<clipPath id="SVGID_2_">
			<use xlink:href="#SVGID_1_"  overflow="visible"/>
		</clipPath>
		<g clip-path="url(#SVGID_2_)">
			<g>
				<path fill="none" stroke="#F2F2F2" stroke-width="3" stroke-linecap="round" stroke-linejoin="round" d="M291.8-11.8L291.8-11.8
					"/>
				
					<path fill="none" stroke="#F2F2F2" stroke-width="3" stroke-linecap="round" stroke-linejoin="round" stroke-dasharray="0.1002,10.0226" d="
					M285.7-10.9c-57.4,8.5-65.9,27.7-123,69.9C92.1,111.2-0.1,115.9-0.1,115.9h-21.9"/>
				
					<line fill="none" stroke="#F2F2F2" stroke-width="3" stroke-linecap="round" stroke-linejoin="round" x1="-25.1" y1="115.9" x2="-25.1" y2="115.9"/>
			</g>
		</g>
	</g>
	<g>
		<defs>
			<rect id="SVGID_3_" x="0" y="0" width="531.2" height="115.9"/>
		</defs>
		<clipPath id="SVGID_4_">
			<use xlink:href="#SVGID_3_"  overflow="visible"/>
		</clipPath>
		<g clip-path="url(#SVGID_4_)">
			<g>
				<path fill="none" stroke="#F2F2F2" stroke-width="3" stroke-linecap="round" stroke-linejoin="round" d="M281.7-11.8L281.7-11.8
					"/>
				
					<path fill="none" stroke="#F2F2F2" stroke-width="3" stroke-linecap="round" stroke-linejoin="round" stroke-dasharray="0.1003,10.0304" d="
					M275.4-11.1C201.5-2.7,191.2,16.5,118.8,59c-88.9,52.2-205.1,56.9-205.1,56.9h-28.7"/>
				
					<line fill="none" stroke="#F2F2F2" stroke-width="3" stroke-linecap="round" stroke-linejoin="round" x1="-118.1" y1="115.9" x2="-118.1" y2="115.9"/>
			</g>
		</g>
	</g>
	<g>
		<defs>
			<rect id="SVGID_5_" x="0" y="0" width="531.2" height="115.9"/>
		</defs>
		<clipPath id="SVGID_6_">
			<use xlink:href="#SVGID_5_"  overflow="visible"/>
		</clipPath>
		<g clip-path="url(#SVGID_6_)">
			<g>
				<path fill="none" stroke="#F2F2F2" stroke-width="3" stroke-linecap="round" stroke-linejoin="round" d="M261.2-11.8L261.2-11.8
					"/>
				
					<path fill="none" stroke="#F2F2F2" stroke-width="3" stroke-linecap="round" stroke-linejoin="round" stroke-dasharray="9.963483e-02,9.9635" d="
					M255.1-11c-71.8,7.4-81.9,24.3-152.5,61.7C16,96.6-97.3,100.9-97.3,100.9h-27.7"/>
				
					<line fill="none" stroke="#F2F2F2" stroke-width="3" stroke-linecap="round" stroke-linejoin="round" x1="-128.1" y1="100.9" x2="-128.1" y2="100.9"/>
			</g>
		</g>
	</g>
	<g>
		<defs>
			<rect id="SVGID_7_" x="0" y="0" width="531.2" height="115.9"/>
		</defs>
		<clipPath id="SVGID_8_">
			<use xlink:href="#SVGID_7_"  overflow="visible"/>
		</clipPath>
		<path opacity="0.15" clip-path="url(#SVGID_8_)" fill="#E7E2DF" enable-background="new    " d="M258.4-14.5
			c0,0-85.9,8.4-123.9,47.3s-82,63.3-135.1,70.8c0.8,12.3,0,12.3,0,12.3h61.5c0,0,77.8-12.6,105.3-56.9S209.2,3.8,258.4-14.5z"/>
	</g>
	<g>
		<defs>
			<rect id="SVGID_9_" x="0" y="0" width="531.2" height="115.9"/>
		</defs>
		<clipPath id="SVGID_10_">
			<use xlink:href="#SVGID_9_"  overflow="visible"/>
		</clipPath>
		<path opacity="0.15" clip-path="url(#SVGID_10_)" fill="#E7E2DF" enable-background="new    " d="M276.8-13.8
			c0,0-73.7,7.8-111.7,46.7S56.6,108.4,3.5,115.9H122c0,0,47.2-12.6,74.7-56.9S227.6,4.4,276.8-13.8z"/>
	</g>
	<g>
		<defs>
			<rect id="SVGID_11_" x="0" y="0" width="531.2" height="115.9"/>
		</defs>
		<clipPath id="SVGID_12_">
			<use xlink:href="#SVGID_11_"  overflow="visible"/>
		</clipPath>
		<g clip-path="url(#SVGID_12_)">
			<g>
				<path fill="none" stroke="#F2F2F2" stroke-width="3" stroke-linecap="round" stroke-linejoin="round" d="M240.6-11.8L240.6-11.8
					"/>
				
					<path fill="none" stroke="#F2F2F2" stroke-width="3" stroke-linecap="round" stroke-linejoin="round" stroke-dasharray="0.1002,10.0226" d="
					M246.7-10.9c57.4,8.5,65.9,27.7,123,69.9c70.5,52.2,162.7,56.9,162.7,56.9h21.9"/>
				
					<line fill="none" stroke="#F2F2F2" stroke-width="3" stroke-linecap="round" stroke-linejoin="round" x1="557.5" y1="115.9" x2="557.5" y2="115.9"/>
			</g>
		</g>
	</g>
	<g>
		<defs>
			<rect id="SVGID_13_" x="0" y="0" width="531.2" height="115.9"/>
		</defs>
		<clipPath id="SVGID_14_">
			<use xlink:href="#SVGID_13_"  overflow="visible"/>
		</clipPath>
		<g clip-path="url(#SVGID_14_)">
			<g>
				<path fill="none" stroke="#F2F2F2" stroke-width="3" stroke-linecap="round" stroke-linejoin="round" d="M250.7-11.8L250.7-11.8
					"/>
				
					<path fill="none" stroke="#F2F2F2" stroke-width="3" stroke-linecap="round" stroke-linejoin="round" stroke-dasharray="0.1003,10.0304" d="
					M257-11.1c73.8,8.4,84.1,27.6,156.6,70.1c88.9,52.2,205.1,56.9,205.1,56.9h28.7"/>
				
					<line fill="none" stroke="#F2F2F2" stroke-width="3" stroke-linecap="round" stroke-linejoin="round" x1="650.5" y1="115.9" x2="650.5" y2="115.9"/>
			</g>
		</g>
	</g>
	<g>
		<defs>
			<rect id="SVGID_15_" x="0" y="0" width="531.2" height="115.9"/>
		</defs>
		<clipPath id="SVGID_16_">
			<use xlink:href="#SVGID_15_"  overflow="visible"/>
		</clipPath>
		<g clip-path="url(#SVGID_16_)">
			<g>
				<path fill="none" stroke="#F2F2F2" stroke-width="3" stroke-linecap="round" stroke-linejoin="round" d="M271.2-11.8L271.2-11.8
					"/>
				
					<path fill="none" stroke="#F2F2F2" stroke-width="3" stroke-linecap="round" stroke-linejoin="round" stroke-dasharray="9.963483e-02,9.9635" d="
					M277.3-11c71.8,7.4,81.9,24.3,152.5,61.7c86.6,45.9,199.8,50.1,199.8,50.1h27.7"/>
				
					<line fill="none" stroke="#F2F2F2" stroke-width="3" stroke-linecap="round" stroke-linejoin="round" x1="660.5" y1="100.9" x2="660.5" y2="100.9"/>
			</g>
		</g>
	</g>
	<g>
		<defs>
			<rect id="SVGID_17_" x="0" y="0" width="531.2" height="115.9"/>
		</defs>
		<clipPath id="SVGID_18_">
			<use xlink:href="#SVGID_17_"  overflow="visible"/>
		</clipPath>
		<path opacity="0.15" clip-path="url(#SVGID_18_)" fill="#E7E2DF" enable-background="new    " d="M274-14.5
			c0,0,85.9,8.4,123.9,47.3c38,38.8,82,63.3,135.1,70.8c-0.8,12.3,0,12.3,0,12.3h-61.5c0,0-77.8-12.6-105.3-56.9
			C338.7,14.6,323.2,3.8,274-14.5z"/>
	</g>
	<g>
		<defs>
			<rect id="SVGID_19_" x="0" y="0" width="531.2" height="115.9"/>
		</defs>
		<clipPath id="SVGID_20_">
			<use xlink:href="#SVGID_19_"  overflow="visible"/>
		</clipPath>
		<path opacity="0.15" clip-path="url(#SVGID_20_)" fill="#E7E2DF" enable-background="new    " d="M255.6-13.8
			c0,0,73.7,7.8,111.7,46.7s108.6,75.5,161.6,83.1H410.4c0,0-47.2-12.6-74.7-56.9C308.1,14.7,304.9,4.4,255.6-13.8z"/>
	</g>
</g>
</svg>
