<?xml version="1.0" encoding="utf-8"?>
<!-- Generator: Adobe Illustrator 19.1.0, SVG Export Plug-In . SVG Version: 6.00 Build 0)  -->
<svg version="1.1" id="Layer_1" xmlns="http://www.w3.org/2000/svg" xmlns:xlink="http://www.w3.org/1999/xlink" x="0px" y="0px"
	 viewBox="0 0 30 44.7" style="enable-background:new 0 0 30 44.7;" xml:space="preserve">
<style type="text/css">
	.st0{fill:#B5AEA8;}
	.st1{fill:#E7E2DF;}
</style>
<g>
	<path class="st0" d="M26.3,21.8c-1.3-2.1-3.1-4.4-4.5-5.7c-2.8-2.6-3-3.6-3-3.6c0.8-2.2,0.9-4,0.9-4l-0.9-0.9
		c-1.7,5.7-3.5,7.3-3.9,7.6c-0.4-0.3-2.2-1.9-3.9-7.6l-0.9,0.9c0,0,0.1,1.8,0.9,4c0,0-0.3,1-3,3.6c-1.3,1.2-3.1,3.3-4.3,5.3
		c-1.8,2.3-2.9,5.3-2.9,8.6c0,8.1,6.3,14,14.2,14c7.8,0,14.2-5.9,14.2-14C28.9,26.9,28,24,26.3,21.8z M18.3,14c0,0,0.7,1.6,2,3.1
		c-0.9-0.4-1.9-0.6-3-0.8c0.1-0.2,0.3-0.5,0.4-0.8C18.1,14.4,18.3,14,18.3,14z M11.3,14c0,0,0.2,0.5,0.6,1.5
		c0.1,0.3,0.3,0.6,0.4,0.8c-1,0.2-2,0.4-2.9,0.8C10.6,15.6,11.3,14,11.3,14z M14.8,41.6c-6.6,0-11.4-5-11.4-11.6
		c0-2.6,0.8-5,2.1-6.9c0.8-1,2-2,2.9-2.7c2.6-1.8,5.9-2,6.5-2s3.9,0.2,6.5,2c0.6,0.4,1.3,0.9,1.9,1.5c1.9,2.1,3,4.9,3,8.1
		C26.2,36.6,21.3,41.6,14.8,41.6z"/>
</g>
<path class="st1" d="M14.9,11.7c2.8-2.6,5.1-5.5,6.7-8.6c-0.9-0.7-1.7-1.5-2.4-2.3l0,0c0-0.2-1.9-0.4-4.2-0.4s-4.2,0.2-4.3,0.4l0,0
	C9.9,1.6,9.1,2.4,8.2,3.1C9.9,6.2,12.1,9.1,14.9,11.7"/>
</svg>
