<?xml version="1.0" encoding="utf-8"?>
<!-- Generator: Adobe Illustrator 17.1.0, SVG Export Plug-In . SVG Version: 6.00 Build 0)  -->
<!DOCTYPE svg PUBLIC "-//W3C//DTD SVG 1.1//EN" "http://www.w3.org/Graphics/SVG/1.1/DTD/svg11.dtd">
<svg version="1.1" id="Layer_1" xmlns="http://www.w3.org/2000/svg" xmlns:xlink="http://www.w3.org/1999/xlink" x="0px" y="0px"
	 viewBox="0 0 20.1 30.5" enable-background="new 0 0 20.1 30.5" xml:space="preserve">
<g>
	<g>
		<g>
			<path fill="#B5AEA8" d="M106.1,6.1c-1,0.5-2.1,1-3.3,1.2c-0.9-1-2.3-1.5-3.7-1.5c-2.8,0-5.1,2.3-5.1,5c0,0.4,0,0.8,0.1,1.2
				c-4.3-0.2-8-2.2-10.6-5.3c-0.5,0.7-0.7,1.6-0.7,2.6c0,1.7,0.9,3.3,2.3,4.2c-0.8,0-1.6-0.3-2.3-0.6c0,0,0,0,0,0.1
				c0,2.5,1.7,4.5,4.1,4.9c-0.5,0.1-0.9,0.2-1.4,0.2c-0.4,0-0.6,0-1-0.1c0.6,2,2.6,3.5,4.8,3.5c-1.7,1.4-3.9,2.2-6.4,2.2
				c-0.5,0-0.8,0-1.2-0.1c2.3,1.5,4.9,2.3,7.8,2.3c9.4,0,14.6-7.7,14.6-14.4c0-0.2,0-0.5,0-0.6c1-0.7,1.9-1.6,2.6-2.6
				c-0.9,0.4-1.9,0.6-2.9,0.8C104.9,8.2,105.8,7.2,106.1,6.1z"/>
		</g>
	</g>
</g>
<g>
	<g>
		<g>
			<path fill="#B5AEA8" d="M6.3,26.4h4.3c0,0,0-5.9,0-10.8h3.2l0.4-4.3h-3.4V9.6c0-0.8,0.5-1,0.9-1c0.4,0,2.4,0,2.4,0V5h-3.3
				C7.1,5,6.2,7.7,6.2,9.4v1.9H4.1v4.3h2.2C6.3,20.5,6.3,26.4,6.3,26.4z"/>
		</g>
	</g>
</g>
<g>
	<g>
		<g>
			<path fill="#B5AEA8" d="M131.3,26.9c0,0.2,0.3,0.2,0.4,0.1c0.1-0.2,1.8-2.2,2.5-4.3c0.2-0.5,0.9-3.6,0.9-3.6
				c0.5,0.9,1.8,1.6,3.3,1.6c4.4,0,7.3-3.8,7.3-9c0-3.9-3.4-7.5-8.6-7.5c-6.5,0-9.7,4.5-9.7,8.2c0,2.3,0.9,4.3,2.7,5
				c0.3,0.1,0.5,0,0.6-0.4c0.1-0.3,0.2-0.8,0.3-1.1c0.1-0.4,0.1-0.5-0.2-0.7c-0.5-0.6-0.9-1.5-0.9-2.6c0-3.3,2.6-6.3,6.7-6.3
				c3.6,0,5.6,2.2,5.6,5c0,3.7-1.7,6.9-4.3,6.9c-1.5,0-2.5-1.1-2.1-2.6c0.4-1.6,1.2-3.5,1.2-4.6c0-1.1-0.6-2-1.8-2
				c-1.5,0-2.6,1.5-2.6,3.4c0,1.3,0.5,2.1,0.5,2.1s-1.5,6.1-1.7,7.1C130.8,24.1,131.2,26.6,131.3,26.9z"/>
		</g>
	</g>
</g>
<g>
	<g>
		<g>
			<path fill="#B5AEA8" d="M56.3,4.6H42.7c-2.4,0-4.3,1.9-4.3,4.3v4.6v9.1c0,2.4,1.9,4.3,4.3,4.3h13.6c2.4,0,4.3-1.9,4.3-4.3v-9.1
				V8.9C60.6,6.5,58.6,4.6,56.3,4.6z M57.6,7.1H58v0.5v3.3h-3.7V7.1H57.6z M46.3,13.4c0.7-1,1.8-1.6,3.2-1.6c1.4,0,2.5,0.6,3.2,1.6
				c0.5,0.6,0.7,1.5,0.7,2.3c0,2.2-1.7,3.9-3.9,3.9c-2.2,0-3.9-1.7-3.9-3.9C45.6,14.8,45.9,14.1,46.3,13.4z M58.4,22.5
				c0,1.2-0.9,2.1-2.1,2.1H42.7c-1.2,0-2.1-0.9-2.1-2.1v-9.1h3.3c-0.3,0.7-0.5,1.5-0.5,2.3c0,3.4,2.7,6,6,6c3.4,0,6-2.7,6-6
				c0-0.8-0.2-1.5-0.5-2.3h3.3L58.4,22.5L58.4,22.5z"/>
		</g>
	</g>
</g>
</svg>
