<?xml version="1.0" encoding="utf-8"?>
<!-- Generator: Adobe Illustrator 19.1.0, SVG Export Plug-In . SVG Version: 6.00 Build 0)  -->
<svg version="1.1" id="Layer_1" xmlns="http://www.w3.org/2000/svg" xmlns:xlink="http://www.w3.org/1999/xlink" x="0px" y="0px"
	 viewBox="0 0 857 184.5" style="enable-background:new 0 0 857 184.5;" xml:space="preserve">
<style type="text/css">
	.st0{clip-path:url(#SVGID_2_);}
	.st1{fill:none;stroke:#F2F2F2;stroke-width:3;stroke-linecap:round;stroke-linejoin:round;}
	.st2{fill:none;stroke:#F2F2F2;stroke-width:3;stroke-linecap:round;stroke-linejoin:round;stroke-dasharray:0.1002,10.0226;}
	.st3{clip-path:url(#SVGID_4_);}
	.st4{fill:none;stroke:#F2F2F2;stroke-width:3;stroke-linecap:round;stroke-linejoin:round;stroke-dasharray:0.1003,10.0304;}
	.st5{clip-path:url(#SVGID_6_);}
	.st6{fill:none;stroke:#F2F2F2;stroke-width:3;stroke-linecap:round;stroke-linejoin:round;stroke-dasharray:9.963483e-02,9.9635;}
	.st7{opacity:0.15;clip-path:url(#SVGID_8_);fill:#E7E2DF;enable-background:new    ;}
	.st8{opacity:0.15;clip-path:url(#SVGID_10_);fill:#E7E2DF;enable-background:new    ;}
	.st9{clip-path:url(#SVGID_12_);}
	.st10{clip-path:url(#SVGID_14_);}
	.st11{clip-path:url(#SVGID_16_);}
	.st12{opacity:0.15;clip-path:url(#SVGID_18_);fill:#E7E2DF;enable-background:new    ;}
	.st13{opacity:0.15;clip-path:url(#SVGID_20_);fill:#E7E2DF;enable-background:new    ;}
	.st14{fill:#B5AEA8;}
	.st15{fill:#E7E2DF;}
	.st16{enable-background:new    ;}
	.st17{fill:#933469;}
	.st18{opacity:0.5;}
</style>
<g>
	<g>
		<defs>
			<rect id="SVGID_1_" x="7.9" width="845.3" height="184.5"/>
		</defs>
		<clipPath id="SVGID_2_">
			<use xlink:href="#SVGID_1_"  style="overflow:visible;"/>
		</clipPath>
		<g class="st0">
			<g>
				<path class="st1" d="M472.3-18.7L472.3-18.7"/>
				<path class="st2" d="M462.5-17.4C371.2-3.9,357.6,26.7,266.7,93.9C154.5,177,7.8,184.5,7.8,184.5H-27"/>
				<line class="st1" x1="-32" y1="184.5" x2="-32" y2="184.5"/>
			</g>
		</g>
	</g>
	<g>
		<defs>
			<rect id="SVGID_3_" x="7.9" width="845.3" height="184.5"/>
		</defs>
		<clipPath id="SVGID_4_">
			<use xlink:href="#SVGID_3_"  style="overflow:visible;"/>
		</clipPath>
		<g class="st3">
			<g>
				<path class="st1" d="M456.1-18.7L456.1-18.7"/>
				<path class="st4" d="M446.1-17.7C328.6-4.3,312.2,26.2,196.9,93.9C55.4,177-129.4,184.5-129.4,184.5H-175"/>
				<line class="st1" x1="-180" y1="184.5" x2="-180" y2="184.5"/>
			</g>
		</g>
	</g>
	<g>
		<defs>
			<rect id="SVGID_5_" x="7.9" width="845.3" height="184.5"/>
		</defs>
		<clipPath id="SVGID_6_">
			<use xlink:href="#SVGID_5_"  style="overflow:visible;"/>
		</clipPath>
		<g class="st5">
			<g>
				<path class="st1" d="M423.6-18.7L423.6-18.7"/>
				<path class="st6" d="M413.8-17.5C299.5-5.8,283.5,21.2,171.1,80.7c-137.8,73-318,79.8-318,79.8h-44"/>
				<line class="st1" x1="-196" y1="160.5" x2="-196" y2="160.5"/>
			</g>
		</g>
	</g>
	<g>
		<defs>
			<rect id="SVGID_7_" x="7.9" width="845.3" height="184.5"/>
		</defs>
		<clipPath id="SVGID_8_">
			<use xlink:href="#SVGID_7_"  style="overflow:visible;"/>
		</clipPath>
		<path class="st7" d="M419.1-23c0,0-136.7,13.4-197.2,75.3S91.4,153,7,165c1.2,19.5,0,19.5,0,19.5h97.8c0,0,123.8-20,167.6-90.6
			S340.8,6,419.1-23z"/>
	</g>
	<g>
		<defs>
			<rect id="SVGID_9_" x="7.9" width="845.3" height="184.5"/>
		</defs>
		<clipPath id="SVGID_10_">
			<use xlink:href="#SVGID_9_"  style="overflow:visible;"/>
		</clipPath>
		<path class="st8" d="M448.4-22c0,0-117.2,12.4-177.7,74.3S97.9,172.5,13.5,184.5h188.6c0,0,75.1-20,118.9-90.6S370,7,448.4-22z"/>
	</g>
	<g>
		<defs>
			<rect id="SVGID_11_" x="7.9" width="845.3" height="184.5"/>
		</defs>
		<clipPath id="SVGID_12_">
			<use xlink:href="#SVGID_11_"  style="overflow:visible;"/>
		</clipPath>
		<g class="st9">
			<g>
				<path class="st1" d="M390.7-18.7L390.7-18.7"/>
				<path class="st2" d="M400.5-17.4C491.8-3.9,505.4,26.7,596.3,93.9c112.2,83.1,258.9,90.6,258.9,90.6H890"/>
				<line class="st1" x1="895" y1="184.5" x2="895" y2="184.5"/>
			</g>
		</g>
	</g>
	<g>
		<defs>
			<rect id="SVGID_13_" x="7.9" width="845.3" height="184.5"/>
		</defs>
		<clipPath id="SVGID_14_">
			<use xlink:href="#SVGID_13_"  style="overflow:visible;"/>
		</clipPath>
		<g class="st10">
			<g>
				<path class="st1" d="M406.9-18.7L406.9-18.7"/>
				<path class="st4" d="M416.9-17.7C534.4-4.3,550.8,26.2,666.1,93.9c141.4,83.1,326.3,90.6,326.3,90.6h45.6"/>
				<line class="st1" x1="1043" y1="184.5" x2="1043" y2="184.5"/>
			</g>
		</g>
	</g>
	<g>
		<defs>
			<rect id="SVGID_15_" x="7.9" width="845.3" height="184.5"/>
		</defs>
		<clipPath id="SVGID_16_">
			<use xlink:href="#SVGID_15_"  style="overflow:visible;"/>
		</clipPath>
		<g class="st11">
			<g>
				<path class="st1" d="M439.4-18.7L439.4-18.7"/>
				<path class="st6" d="M449.2-17.5C563.5-5.8,579.5,21.2,691.9,80.7c137.8,73,318,79.8,318,79.8h44"/>
				<line class="st1" x1="1059" y1="160.5" x2="1059" y2="160.5"/>
			</g>
		</g>
	</g>
	<g>
		<defs>
			<rect id="SVGID_17_" x="7.9" width="845.3" height="184.5"/>
		</defs>
		<clipPath id="SVGID_18_">
			<use xlink:href="#SVGID_17_"  style="overflow:visible;"/>
		</clipPath>
		<path class="st12" d="M443.9-23c0,0,136.7,13.4,197.2,75.3C701.5,114.1,771.6,153,856,165c-1.2,19.5,0,19.5,0,19.5h-97.8
			c0,0-123.8-20-167.6-90.6S522.2,6,443.9-23z"/>
	</g>
	<g>
		<defs>
			<rect id="SVGID_19_" x="7.9" width="845.3" height="184.5"/>
		</defs>
		<clipPath id="SVGID_20_">
			<use xlink:href="#SVGID_19_"  style="overflow:visible;"/>
		</clipPath>
		<path class="st13" d="M414.6-22c0,0,117.2,12.4,177.7,74.3s172.8,120.2,257.2,132.2H660.9c0,0-75.1-20-118.9-90.6
			C498.2,23.4,493,7,414.6-22z"/>
	</g>
</g>
<g>
	<g>
		<path class="st14" d="M423.3,125.2c-1.3-2.1-3.1-4.4-4.5-5.7c-2.8-2.6-3-3.6-3-3.6c0.8-2.2,0.9-4,0.9-4l-0.9-0.9
			c-1.7,5.7-3.5,7.3-3.9,7.6c-0.4-0.3-2.2-1.9-3.9-7.6l-0.9,0.9c0,0,0.1,1.8,0.9,4c0,0-0.3,1-3,3.6c-1.3,1.2-3.1,3.3-4.3,5.3
			c-1.8,2.3-2.9,5.3-2.9,8.6c0,8.1,6.3,14,14.2,14s14.2-5.9,14.2-14C426,130.3,425,127.4,423.3,125.2z M415.3,117.4
			c0,0,0.7,1.6,2,3.1c-0.9-0.4-1.9-0.6-3-0.8c0.1-0.2,0.3-0.5,0.4-0.8C415.1,117.8,415.3,117.4,415.3,117.4z M408.4,117.4
			c0,0,0.2,0.5,0.6,1.5c0.1,0.3,0.3,0.6,0.4,0.8c-1,0.2-2,0.4-2.9,0.8C407.6,119,408.4,117.4,408.4,117.4z M411.8,145
			c-6.6,0-11.4-5-11.4-11.6c0-2.6,0.8-5,2.1-6.9c0.8-1,2-2,2.9-2.7c2.6-1.8,5.9-2,6.5-2s3.9,0.2,6.5,2c0.6,0.4,1.3,0.9,1.9,1.5
			c1.9,2.1,3,4.9,3,8.1C423.2,140,418.4,145,411.8,145z"/>
	</g>
	<g>
		<g>
			<g>
				<g>
					<path class="st14" d="M362.8,117.5h0.2l13,16.9l12.9-16.9h0.2V147h-2.5v-22.7l-10.6,14h-0.2l-10.5-14V147h-2.5V117.5z"/>
				</g>
			</g>
			<g>
				<g>
					<path class="st14" d="M436.9,124.3v22.8h-2.5v-29.5h0.2l18.6,23.4v-22.8h2.5v29.5h-0.2L436.9,124.3z"/>
				</g>
			</g>
			<g>
				<g>
					<path class="st14" d="M466.3,118.1h2.7V147h-2.7V118.1z"/>
				</g>
			</g>
			<g>
				<g>
					<path class="st14" d="M477.6,132.6c0-8.6,6.1-14.8,14-14.8c4.7,0,8.4,2,10.8,5.4l-2,1.5c-2.1-2.8-5-4.4-8.9-4.4
						c-6.4,0-11.2,5.3-11.2,12.3c0,7.1,4.8,12.3,11.4,12.3c4,0,7.2-1.7,9.4-4.8l2.1,1.5c-2.7,3.7-6.6,5.8-11.5,5.8
						C483.7,147.4,477.6,141.2,477.6,132.6z"/>
				</g>
			</g>
			<g>
				<g>
					<path class="st14" d="M511.4,147.1h-2.6l11.6-29.6h0.2l11.7,29.6h-2.7l-1.9-5h-14.3L511.4,147.1z M520.5,123.5l-6.2,16h12.4
						L520.5,123.5z"/>
				</g>
			</g>
		</g>
	</g>
	<path class="st15" d="M412,115.1c2.8-2.6,5.1-5.5,6.7-8.6c-0.9-0.7-1.7-1.5-2.4-2.3l0,0c0-0.2-1.9-0.4-4.2-0.4
		c-2.3,0-4.2,0.2-4.3,0.4l0,0c-0.8,0.8-1.6,1.6-2.5,2.3C406.9,109.6,409.2,112.5,412,115.1"/>
</g>
<g>
	<g>
		<g>
			<g class="st16">
				<path class="st15" d="M325.5,147.1h-3.8v-34.8h4.1v12.4c1.7-2.3,3.9-3.4,6.6-3.4c1.5,0,2.9,0.3,4.2,0.9c1.3,0.6,2.4,1.5,3.3,2.6
					c0.9,1.1,1.5,2.5,2,4.1c0.5,1.6,0.7,3.3,0.7,5.1c0,4.3-1,7.7-3.1,10s-4.5,3.5-7.3,3.5c-2.8,0-5.1-1.2-6.7-3.7V147.1z
					 M325.4,134.3c0,3,0.4,5.2,1.2,6.6c1.3,2.2,3,3.3,5.2,3.3c1.8,0,3.3-0.8,4.6-2.4c1.3-1.6,1.9-4,1.9-7.3c0-3.3-0.6-5.7-1.9-7.3
					c-1.2-1.6-2.8-2.4-4.5-2.4c-1.8,0-3.3,0.8-4.6,2.4C326.1,128.8,325.4,131.2,325.4,134.3z"/>
				<path class="st15" d="M347.4,156.8l-0.5-4c0.9,0.3,1.7,0.4,2.3,0.4c0.9,0,1.6-0.2,2.2-0.5c0.5-0.3,1-0.8,1.3-1.3
					c0.3-0.4,0.7-1.5,1.2-3.2c0.1-0.2,0.2-0.6,0.4-1l-9.1-25.3h4.4l5,14.6c0.6,1.9,1.2,3.8,1.7,5.8c0.5-2,1-3.9,1.7-5.7l5.1-14.7
					h4.1l-9.2,25.6c-1,2.8-1.7,4.7-2.3,5.7c-0.7,1.4-1.6,2.4-2.5,3.1c-0.9,0.7-2.1,1-3.4,1C349.2,157.3,348.3,157.1,347.4,156.8z"/>
			</g>
		</g>
	</g>
</g>
<g>
	<g>
		<g class="st16">
			<path class="st17" d="M278.8,52.3h5.2v22.4c0,3.9-0.4,7-1.3,9.3c-0.9,2.3-2.5,4.2-4.8,5.6c-2.3,1.4-5.4,2.2-9.2,2.2
				c-3.7,0-6.7-0.6-9-1.9c-2.3-1.3-4-3.1-5-5.4c-1-2.4-1.5-5.6-1.5-9.7V52.3h5.2v22.4c0,3.4,0.3,5.9,1,7.5c0.6,1.6,1.7,2.8,3.3,3.7
				c1.5,0.9,3.4,1.3,5.7,1.3c3.8,0,6.6-0.9,8.2-2.6c1.6-1.7,2.4-5,2.4-9.9V52.3z"/>
			<path class="st17" d="M289,91.1V63h4.3v4c2.1-3.1,5.1-4.6,9.1-4.6c1.7,0,3.3,0.3,4.7,0.9c1.4,0.6,2.5,1.4,3.2,2.4
				c0.7,1,1.2,2.2,1.5,3.5c0.2,0.9,0.3,2.4,0.3,4.6v17.3h-4.8V74c0-1.9-0.2-3.4-0.6-4.4c-0.4-1-1-1.7-2-2.3c-1-0.6-2.1-0.9-3.4-0.9
				c-2.1,0-3.8,0.6-5.3,1.9c-1.5,1.3-2.2,3.7-2.2,7.3v15.4H289z"/>
			<path class="st17" d="M324.5,91.1L313.7,63h5.1l6.1,16.8c0.7,1.8,1.3,3.7,1.8,5.7c0.4-1.5,1-3.3,1.8-5.4l6.3-17.2h5L329,91.1
				H324.5z"/>
			<path class="st17" d="M360.5,82.1l5,0.6c-0.8,2.9-2.2,5.1-4.4,6.7c-2.1,1.6-4.8,2.4-8.2,2.4c-4.2,0-7.5-1.3-9.9-3.8
				c-2.4-2.5-3.7-6.1-3.7-10.7c0-4.7,1.2-8.4,3.7-11c2.5-2.6,5.7-3.9,9.6-3.9c3.8,0,6.9,1.3,9.3,3.8s3.6,6.2,3.6,10.8
				c0,0.3,0,0.7,0,1.3h-21.3c0.2,3.1,1.1,5.5,2.7,7.1c1.6,1.6,3.6,2.5,6,2.5c1.8,0,3.3-0.5,4.5-1.4
				C358.8,85.6,359.8,84.1,360.5,82.1z M344.7,74.4h15.9c-0.2-2.4-0.8-4.1-1.8-5.3c-1.5-1.8-3.5-2.8-6-2.8c-2.2,0-4.1,0.7-5.6,2.2
				S344.8,71.9,344.7,74.4z"/>
			<path class="st17" d="M368.6,57.8v-5.5h4.8v5.5H368.6z M368.6,91.1V63h4.8v28.1H368.6z"/>
			<path class="st17" d="M377.7,91.1V52.3h4.8v38.8H377.7z"/>
			<path class="st17" d="M406.5,82.1l5,0.6c-0.8,2.9-2.2,5.1-4.4,6.7c-2.1,1.6-4.8,2.4-8.2,2.4c-4.2,0-7.5-1.3-9.9-3.8
				c-2.4-2.5-3.7-6.1-3.7-10.7c0-4.7,1.2-8.4,3.7-11c2.5-2.6,5.7-3.9,9.6-3.9c3.8,0,6.9,1.3,9.3,3.8s3.6,6.2,3.6,10.8
				c0,0.3,0,0.7,0,1.3h-21.3c0.2,3.1,1.1,5.5,2.7,7.1c1.6,1.6,3.6,2.5,6,2.5c1.8,0,3.3-0.5,4.5-1.4
				C404.7,85.6,405.7,84.1,406.5,82.1z M390.6,74.4h15.9c-0.2-2.4-0.8-4.1-1.8-5.3c-1.5-1.8-3.5-2.8-6-2.8c-2.2,0-4.1,0.7-5.6,2.2
				S390.8,71.9,390.6,74.4z"/>
			<path class="st17" d="M433,91.1v-3.6c-1.8,2.8-4.5,4.2-8,4.2c-2.3,0-4.4-0.6-6.3-1.9c-1.9-1.2-3.4-3-4.4-5.2
				c-1-2.2-1.6-4.8-1.6-7.6c0-2.8,0.5-5.4,1.4-7.6c0.9-2.3,2.4-4,4.3-5.3c1.9-1.2,4-1.8,6.4-1.8c1.7,0,3.2,0.4,4.6,1.1
				s2.4,1.6,3.3,2.8V52.3h4.8v38.8H433z M417.7,77.1c0,3.6,0.8,6.3,2.3,8.1c1.5,1.8,3.4,2.7,5.4,2.7c2.1,0,3.9-0.9,5.4-2.6
				c1.5-1.7,2.2-4.3,2.2-7.8c0-3.9-0.8-6.7-2.3-8.5c-1.5-1.8-3.4-2.7-5.6-2.7c-2.1,0-3.9,0.9-5.4,2.6
				C418.4,70.6,417.7,73.4,417.7,77.1z"/>
		</g>
	</g>
</g>
<g class="st18">
	<g>
		<g>
			<g class="st16">
				<path class="st15" d="M278.8,52.3h5.2v22.4c0,3.9-0.4,7-1.3,9.3c-0.9,2.3-2.5,4.2-4.8,5.6c-2.3,1.4-5.4,2.2-9.2,2.2
					c-3.7,0-6.7-0.6-9-1.9c-2.3-1.3-4-3.1-5-5.4c-1-2.4-1.5-5.6-1.5-9.7V52.3h5.2v22.4c0,3.4,0.3,5.9,1,7.5c0.6,1.6,1.7,2.8,3.3,3.7
					c1.5,0.9,3.4,1.3,5.7,1.3c3.8,0,6.6-0.9,8.2-2.6c1.6-1.7,2.4-5,2.4-9.9V52.3z"/>
				<path class="st15" d="M289,91.1V63h4.3v4c2.1-3.1,5.1-4.6,9.1-4.6c1.7,0,3.3,0.3,4.7,0.9c1.4,0.6,2.5,1.4,3.2,2.4
					c0.7,1,1.2,2.2,1.5,3.5c0.2,0.9,0.3,2.4,0.3,4.6v17.3h-4.8V74c0-1.9-0.2-3.4-0.6-4.4c-0.4-1-1-1.7-2-2.3c-1-0.6-2.1-0.9-3.4-0.9
					c-2.1,0-3.8,0.6-5.3,1.9c-1.5,1.3-2.2,3.7-2.2,7.3v15.4H289z"/>
				<path class="st15" d="M324.5,91.1L313.7,63h5.1l6.1,16.8c0.7,1.8,1.3,3.7,1.8,5.7c0.4-1.5,1-3.3,1.8-5.4l6.3-17.2h5L329,91.1
					H324.5z"/>
				<path class="st15" d="M360.5,82.1l5,0.6c-0.8,2.9-2.2,5.1-4.4,6.7c-2.1,1.6-4.8,2.4-8.2,2.4c-4.2,0-7.5-1.3-9.9-3.8
					c-2.4-2.5-3.7-6.1-3.7-10.7c0-4.7,1.2-8.4,3.7-11c2.5-2.6,5.7-3.9,9.6-3.9c3.8,0,6.9,1.3,9.3,3.8s3.6,6.2,3.6,10.8
					c0,0.3,0,0.7,0,1.3h-21.3c0.2,3.1,1.1,5.5,2.7,7.1c1.6,1.6,3.6,2.5,6,2.5c1.8,0,3.3-0.5,4.5-1.4
					C358.8,85.6,359.8,84.1,360.5,82.1z M344.7,74.4h15.9c-0.2-2.4-0.8-4.1-1.8-5.3c-1.5-1.8-3.5-2.8-6-2.8c-2.2,0-4.1,0.7-5.6,2.2
					S344.8,71.9,344.7,74.4z"/>
				<path class="st15" d="M368.6,57.8v-5.5h4.8v5.5H368.6z M368.6,91.1V63h4.8v28.1H368.6z"/>
				<path class="st15" d="M377.7,91.1V52.3h4.8v38.8H377.7z"/>
				<path class="st15" d="M406.5,82.1l5,0.6c-0.8,2.9-2.2,5.1-4.4,6.7c-2.1,1.6-4.8,2.4-8.2,2.4c-4.2,0-7.5-1.3-9.9-3.8
					c-2.4-2.5-3.7-6.1-3.7-10.7c0-4.7,1.2-8.4,3.7-11c2.5-2.6,5.7-3.9,9.6-3.9c3.8,0,6.9,1.3,9.3,3.8s3.6,6.2,3.6,10.8
					c0,0.3,0,0.7,0,1.3h-21.3c0.2,3.1,1.1,5.5,2.7,7.1c1.6,1.6,3.6,2.5,6,2.5c1.8,0,3.3-0.5,4.5-1.4
					C404.7,85.6,405.7,84.1,406.5,82.1z M390.6,74.4h15.9c-0.2-2.4-0.8-4.1-1.8-5.3c-1.5-1.8-3.5-2.8-6-2.8c-2.2,0-4.1,0.7-5.6,2.2
					S390.8,71.9,390.6,74.4z"/>
				<path class="st15" d="M433,91.1v-3.6c-1.8,2.8-4.5,4.2-8,4.2c-2.3,0-4.4-0.6-6.3-1.9c-1.9-1.2-3.4-3-4.4-5.2
					c-1-2.2-1.6-4.8-1.6-7.6c0-2.8,0.5-5.4,1.4-7.6c0.9-2.3,2.4-4,4.3-5.3c1.9-1.2,4-1.8,6.4-1.8c1.7,0,3.2,0.4,4.6,1.1
					s2.4,1.6,3.3,2.8V52.3h4.8v38.8H433z M417.7,77.1c0,3.6,0.8,6.3,2.3,8.1c1.5,1.8,3.4,2.7,5.4,2.7c2.1,0,3.9-0.9,5.4-2.6
					c1.5-1.7,2.2-4.3,2.2-7.8c0-3.9-0.8-6.7-2.3-8.5c-1.5-1.8-3.4-2.7-5.6-2.7c-2.1,0-3.9,0.9-5.4,2.6
					C418.4,70.6,417.7,73.4,417.7,77.1z"/>
			</g>
		</g>
	</g>
</g>
<g>
</g>
<g>
</g>
<g>
</g>
<g>
</g>
<g>
</g>
<g>
</g>
<g>
</g>
<g>
</g>
<g>
</g>
<g>
</g>
<g>
</g>
<g>
</g>
<g>
</g>
<g>
</g>
<g>
</g>
</svg>
