<?xml version="1.0" encoding="utf-8"?>
<!-- Generator: Adobe Illustrator 19.1.0, SVG Export Plug-In . SVG Version: 6.00 Build 0)  -->
<svg version="1.1" id="Layer_1" xmlns="http://www.w3.org/2000/svg" xmlns:xlink="http://www.w3.org/1999/xlink" x="0px" y="0px"
	 viewBox="0 0 381 112.4" style="enable-background:new 0 0 381 112.4;" xml:space="preserve">
<style type="text/css">
	.st0{fill:#B5AEA8;}
	.st1{font-family:'OpenSans-Semibold';}
	.st2{font-size:11.9456px;}
	.st3{fill:#933469;}
</style>
<g>
	<text transform="matrix(1 0 0 1 100.6952 106.9114)" class="st0 st1 st2">Planning • Floral Design • DÉcor</text>
</g>
<g>
	<g>
		<path class="st3" d="M64.3,23.4c-1.3-2-3.2-4.3-4.7-5.6c-2.8-2.5-3.1-3.5-3.1-3.5c0.8-2.1,0.9-3.9,0.9-3.9l-0.9-0.9
			c-1.8,5.6-3.6,7.2-4,7.5c-0.4-0.3-2.3-1.8-4-7.5l-0.9,0.9c0,0,0.1,1.8,0.9,3.9c0,0-0.3,1-3.1,3.5c-1.3,1.2-3.1,3.3-4.5,5.2
			c-1.9,2.3-3,5.2-3,8.5c0,7.9,6.5,13.7,14.6,13.7s14.6-5.8,14.6-13.7C67,28.4,66,25.6,64.3,23.4z M56.1,15.8c0,0,0.8,1.6,2,3
			c-1-0.4-2-0.6-3-0.8c0.1-0.2,0.3-0.5,0.4-0.8C55.9,16.2,56.1,15.8,56.1,15.8z M49,15.8c0,0,0.2,0.4,0.6,1.4
			c0.1,0.3,0.3,0.6,0.4,0.8c-1,0.2-2,0.4-3,0.8C48.2,17.3,49,15.8,49,15.8z M52.5,42.9c-6.8,0-11.7-4.9-11.7-11.4
			c0-2.6,0.8-4.9,2.1-6.7c0.8-1,2-2,3-2.7c2.6-1.8,6-1.9,6.6-1.9s4,0.2,6.6,1.9c0.6,0.4,1.3,0.9,1.9,1.5c1.9,2,3.1,4.8,3.1,7.9
			C64.2,38,59.2,42.9,52.5,42.9z"/>
	</g>
	<g>
		<g>
			<path class="st3" d="M2.2,15.9h0.2l13.3,16.6L29,16h0.2v28.9h-2.6V22.6L15.7,36.3h-0.2L4.7,22.6v22.3H2.1L2.2,15.9L2.2,15.9z"/>
			<path class="st3" d="M78.3,22.6v22.3h-2.5v-29h0.3l19.1,22.9V16.5h2.5v29h-0.3L78.3,22.6z"/>
			<path class="st3" d="M108.4,16.5h2.8v28.4h-2.8V16.5z"/>
			<path class="st3" d="M120,30.7c0-8.4,6.3-14.5,14.3-14.5c4.8,0,8.6,2,11.1,5.3l-2.1,1.5c-2.1-2.8-5.1-4.3-9.1-4.3
				c-6.6,0-11.5,5.2-11.5,12.1c0,7,5,12.1,11.7,12.1c4.1,0,7.4-1.7,9.6-4.7l2.1,1.5c-2.8,3.7-6.8,5.7-11.8,5.7
				C126.3,45.2,120,39.1,120,30.7z"/>
			<path class="st3" d="M154.7,44.9H152l11.9-29h0.2l12,29h-2.8l-2-4.9h-14.6L154.7,44.9z M164,21.8l-6.4,15.7h12.7L164,21.8z"/>
			<path class="st3" d="M196.9,16.5h9.3c5.3,0,8,3.1,8,7c0,2.7-1.3,4.6-3.6,5.7c3.6,1,5.9,3.7,5.9,7.5c0,4.6-3,8.3-9.1,8.3h-10.5
				V16.5z M206.4,28.2c3.6,0,5-2,5-4.7c0-2.6-1.5-4.6-5.4-4.6h-6.4v9.3H206.4z M207,42.5c4.7,0,6.6-2.5,6.6-5.9c0-3.5-2.1-6-6.7-6
				h-7.3v11.9H207z"/>
			<path class="st3" d="M242.3,44.9H239l-5.6-7.3c-0.8,0.1-1.5,0.2-2.3,0.2h-3.5v7.1h-2.7V16.5h6.2c7.7,0,11.7,4.5,11.7,10.7
				c0,4.5-2.3,8.3-6.6,9.8L242.3,44.9z M230.9,35.4c6.5,0,9.1-3.5,9.1-8.2c0-4.8-2.6-8.3-9.1-8.3h-3.3v16.5H230.9z"/>
			<path class="st3" d="M249.2,30.7c0-8.4,6.5-14.5,14.6-14.5c8.1,0,14.6,6.1,14.6,14.5s-6.5,14.5-14.6,14.5
				C255.7,45.2,249.2,39.1,249.2,30.7z M275.5,30.7c0-6.9-5-12.1-11.7-12.1c-6.8,0-11.7,5.2-11.7,12.1s5,12.1,11.7,12.1
				C270.5,42.8,275.5,37.6,275.5,30.7z"/>
			<path class="st3" d="M283.3,16.5h2.8l6.9,22.1l8.6-22.7h0.2l8.6,22.7l6.9-22.1h2.7l-9.3,28.9h-0.2l-8.7-23.1l-8.9,23.1h-0.2
				L283.3,16.5z"/>
			<path class="st3" d="M331.6,22.6v22.3h-2.5v-29h0.3l19.1,22.9V16.5h2.5v29h-0.2L331.6,22.6z"/>
			<path class="st3" d="M361.6,16.5h17.1v2.4h-14.4v14.2h12.8v2.4h-12.8v7h15v2.4h-17.7L361.6,16.5L361.6,16.5z"/>
		</g>
	</g>
	<g>
		<g>
			<path class="st0" d="M84.8,59.4H87l5.4,17.1L99,58.9h0.2l6.6,17.6l5.3-17.1h2.1L106,81.8h-0.2L99.1,64l-6.8,17.8h-0.1L84.8,59.4z
				"/>
			<path class="st0" d="M124.7,59.4h13.2v1.9h-11.1v11h9.9v1.8h-9.9v5.4h11.6v1.9h-13.7V59.4z"/>
			<path class="st0" d="M150.5,59.4h5.5c7.3,0,11.6,4.5,11.6,11s-4.3,11-11.6,11h-5.5V59.4z M155.8,79.4c6.5,0,9.6-3.7,9.6-9.1
				c0-5.3-3.1-9.1-9.6-9.1h-3.2v18.1L155.8,79.4L155.8,79.4z"/>
			<path class="st0" d="M178.3,59.4h5.5c7.3,0,11.6,4.5,11.6,11s-4.3,11-11.6,11h-5.5V59.4z M183.6,79.4c6.5,0,9.6-3.7,9.6-9.1
				c0-5.3-3.1-9.1-9.6-9.1h-3.2v18.1L183.6,79.4L183.6,79.4z"/>
			<path class="st0" d="M205.6,59.4h2.1v21.9h-2.1V59.4z"/>
			<path class="st0" d="M223.8,64.1v17.3h-2V58.9h0.2l14.8,17.7V59.4h2v22.4h-0.2L223.8,64.1z"/>
			<path class="st0" d="M250.1,70.4c0-6.5,5-11.2,11.1-11.2c3.8,0,6.4,1.4,8.3,3.4L268,64c-1.5-1.7-3.5-2.9-6.8-2.9
				c-5.1,0-8.9,4-8.9,9.3s3.8,9.3,9.3,9.3c3.2,0,5.3-0.9,6.7-2.1v-3.5h-6.6v-1.9h8.6v6.3c-2,1.8-4.6,3.1-8.7,3.1
				C255.1,81.6,250.1,76.9,250.1,70.4z"/>
			<path class="st0" d="M281.8,76.2c1.2,2.2,3.2,3.5,5.7,3.5c3,0,4.8-1.5,4.8-3.8c0-2.4-1.5-3.5-4.1-4.7l-1.8-0.8
				c-3.2-1.5-5.1-2.9-5.1-6c0-3.1,2.4-5.2,5.6-5.2c2.7,0,4.6,1,6,3.2l-1.6,1c-1-1.6-2.4-2.4-4.4-2.4c-2.2,0-3.6,1.4-3.6,3.3
				c0,2.1,1.2,2.9,3.9,4.1l1.8,0.8c3.5,1.7,5.4,3.3,5.4,6.6c0,3.6-2.7,5.7-6.8,5.7c-3.6,0-6.1-1.7-7.6-4.4L281.8,76.2z"/>
		</g>
	</g>
	<path class="st0" d="M52.6,13.6c2.9-2.5,5.2-5.4,6.9-8.4C58.6,4.5,57.8,3.7,57,3l0,0c0-0.2-1.9-0.4-4.3-0.4S48.4,2.8,48.3,3l0,0
		c-0.8,0.8-1.7,1.6-2.6,2.3C47.4,8.2,49.8,11,52.6,13.6"/>
</g>
</svg>
