<?xml version="1.0" encoding="utf-8"?>
<!-- Generator: Adobe Illustrator 19.1.0, SVG Export Plug-In . SVG Version: 6.00 Build 0)  -->
<svg version="1.1" id="Layer_1" xmlns="http://www.w3.org/2000/svg" xmlns:xlink="http://www.w3.org/1999/xlink" x="0px" y="0px"
	 viewBox="0 0 383.1 112.9" style="enable-background:new 0 0 383.1 112.9;" xml:space="preserve">
<style type="text/css">
	.st0{enable-background:new    ;}
	.st1{fill:#B5AEA8;}
	.st2{fill:#933469;}
</style>
<g>
	<g class="st0">
		<path class="st1" d="M106.8,106.9v-8.6h3.2c0.6,0,1,0,1.3,0.1c0.4,0.1,0.8,0.2,1.1,0.4c0.3,0.2,0.5,0.5,0.7,0.8
			c0.2,0.4,0.3,0.7,0.3,1.2c0,0.7-0.2,1.3-0.7,1.8c-0.5,0.5-1.3,0.8-2.5,0.8H108v3.5H106.8z M108,102.4h2.2c0.7,0,1.2-0.1,1.6-0.4
			c0.3-0.3,0.5-0.7,0.5-1.1c0-0.4-0.1-0.7-0.3-0.9c-0.2-0.3-0.4-0.4-0.7-0.5c-0.2-0.1-0.5-0.1-1.1-0.1H108V102.4z"/>
		<path class="st1" d="M114.6,106.9v-8.6h1v8.6H114.6z"/>
		<path class="st1" d="M121.4,106.1c-0.4,0.3-0.8,0.6-1.1,0.7c-0.4,0.1-0.7,0.2-1.2,0.2c-0.7,0-1.2-0.2-1.6-0.5
			c-0.4-0.3-0.5-0.8-0.5-1.3c0-0.3,0.1-0.6,0.2-0.8c0.1-0.2,0.3-0.5,0.5-0.6c0.2-0.2,0.5-0.3,0.8-0.3c0.2-0.1,0.5-0.1,0.9-0.2
			c0.8-0.1,1.5-0.2,1.9-0.4c0-0.1,0-0.2,0-0.3c0-0.4-0.1-0.7-0.3-0.9c-0.3-0.2-0.7-0.4-1.2-0.4c-0.5,0-0.9,0.1-1.1,0.3
			c-0.2,0.2-0.4,0.5-0.5,0.9l-1-0.1c0.1-0.4,0.2-0.8,0.5-1.1c0.2-0.3,0.5-0.5,0.9-0.6c0.4-0.1,0.9-0.2,1.4-0.2c0.5,0,1,0.1,1.3,0.2
			c0.3,0.1,0.6,0.3,0.7,0.5c0.2,0.2,0.3,0.4,0.3,0.7c0,0.2,0.1,0.5,0.1,1v1.4c0,1,0,1.6,0.1,1.9c0,0.3,0.1,0.5,0.3,0.7h-1.1
			C121.5,106.7,121.4,106.4,121.4,106.1z M121.3,103.8c-0.4,0.2-1,0.3-1.7,0.4c-0.4,0.1-0.7,0.1-0.9,0.2c-0.2,0.1-0.3,0.2-0.4,0.3
			c-0.1,0.1-0.1,0.3-0.1,0.5c0,0.3,0.1,0.5,0.3,0.7c0.2,0.2,0.5,0.3,0.9,0.3c0.4,0,0.8-0.1,1.1-0.3c0.3-0.2,0.5-0.4,0.7-0.7
			c0.1-0.2,0.2-0.6,0.2-1V103.8z"/>
		<path class="st1" d="M124,106.9v-6.2h0.9v0.9c0.5-0.7,1.1-1,2-1c0.4,0,0.7,0.1,1,0.2c0.3,0.1,0.5,0.3,0.7,0.5s0.3,0.5,0.3,0.8
			c0,0.2,0.1,0.5,0.1,1v3.8h-1v-3.8c0-0.4,0-0.7-0.1-1c-0.1-0.2-0.2-0.4-0.4-0.5c-0.2-0.1-0.5-0.2-0.7-0.2c-0.4,0-0.8,0.1-1.2,0.4
			c-0.3,0.3-0.5,0.8-0.5,1.6v3.4H124z"/>
		<path class="st1" d="M130.6,106.9v-6.2h0.9v0.9c0.5-0.7,1.1-1,2-1c0.4,0,0.7,0.1,1,0.2c0.3,0.1,0.5,0.3,0.7,0.5s0.3,0.5,0.3,0.8
			c0,0.2,0.1,0.5,0.1,1v3.8h-1v-3.8c0-0.4,0-0.7-0.1-1c-0.1-0.2-0.2-0.4-0.4-0.5c-0.2-0.1-0.5-0.2-0.7-0.2c-0.4,0-0.8,0.1-1.2,0.4
			c-0.3,0.3-0.5,0.8-0.5,1.6v3.4H130.6z"/>
		<path class="st1" d="M137.3,99.6v-1.2h1v1.2H137.3z M137.3,106.9v-6.2h1v6.2H137.3z"/>
		<path class="st1" d="M139.9,106.9v-6.2h0.9v0.9c0.5-0.7,1.1-1,2-1c0.4,0,0.7,0.1,1,0.2c0.3,0.1,0.5,0.3,0.7,0.5
			c0.2,0.2,0.3,0.5,0.3,0.8c0,0.2,0.1,0.5,0.1,1v3.8h-1v-3.8c0-0.4,0-0.7-0.1-1s-0.2-0.4-0.4-0.5c-0.2-0.1-0.5-0.2-0.7-0.2
			c-0.4,0-0.8,0.1-1.2,0.4c-0.3,0.3-0.5,0.8-0.5,1.6v3.4H139.9z"/>
		<path class="st1" d="M146.4,107.4l1,0.2c0,0.3,0.2,0.5,0.4,0.7c0.3,0.2,0.6,0.3,1.1,0.3c0.5,0,0.9-0.1,1.1-0.3
			c0.3-0.2,0.4-0.5,0.5-0.8c0.1-0.2,0.1-0.7,0.1-1.3c-0.5,0.5-1,0.8-1.7,0.8c-0.9,0-1.5-0.3-2-0.9s-0.7-1.4-0.7-2.2
			c0-0.6,0.1-1.1,0.3-1.6c0.2-0.5,0.5-0.9,0.9-1.2c0.4-0.3,0.9-0.4,1.4-0.4c0.7,0,1.3,0.3,1.8,0.9v-0.7h1v5.4c0,1-0.1,1.6-0.3,2
			s-0.5,0.7-0.9,1s-0.9,0.3-1.6,0.3c-0.7,0-1.3-0.2-1.8-0.5C146.6,108.6,146.3,108.1,146.4,107.4z M147.2,103.7
			c0,0.8,0.2,1.4,0.5,1.8c0.3,0.4,0.7,0.6,1.2,0.6c0.5,0,0.9-0.2,1.2-0.6c0.3-0.4,0.5-1,0.5-1.7c0-0.8-0.2-1.3-0.5-1.7
			c-0.3-0.4-0.7-0.6-1.2-0.6c-0.5,0-0.9,0.2-1.2,0.6C147.4,102.4,147.2,103,147.2,103.7z"/>
		<path class="st1" d="M156.4,102.7c0-0.4,0.1-0.8,0.4-1c0.3-0.3,0.6-0.4,1-0.4c0.4,0,0.8,0.1,1,0.4c0.3,0.3,0.4,0.6,0.4,1
			c0,0.4-0.1,0.8-0.4,1c-0.3,0.3-0.6,0.4-1,0.4c-0.4,0-0.8-0.1-1-0.4C156.5,103.5,156.4,103.1,156.4,102.7z"/>
		<path class="st1" d="M164.2,106.9v-8.6h5.8v1h-4.6v2.6h4v1h-4v3.9H164.2z"/>
		<path class="st1" d="M171.3,106.9v-8.6h1v8.6H171.3z"/>
		<path class="st1" d="M173.6,103.8c0-1.1,0.3-2,1-2.5c0.5-0.5,1.2-0.7,1.9-0.7c0.9,0,1.5,0.3,2.1,0.8c0.5,0.6,0.8,1.3,0.8,2.3
			c0,0.8-0.1,1.4-0.4,1.9c-0.2,0.5-0.6,0.8-1,1.1s-1,0.4-1.5,0.4c-0.9,0-1.6-0.3-2.1-0.8C173.8,105.7,173.6,104.9,173.6,103.8z
			 M174.6,103.8c0,0.8,0.2,1.4,0.5,1.8c0.3,0.4,0.8,0.6,1.3,0.6c0.5,0,1-0.2,1.3-0.6c0.3-0.4,0.5-1,0.5-1.8c0-0.8-0.2-1.3-0.5-1.7
			c-0.3-0.4-0.8-0.6-1.3-0.6c-0.5,0-1,0.2-1.3,0.6C174.8,102.4,174.6,103,174.6,103.8z"/>
		<path class="st1" d="M180.6,106.9v-6.2h0.9v0.9c0.2-0.4,0.5-0.7,0.7-0.9c0.2-0.1,0.4-0.2,0.7-0.2c0.4,0,0.7,0.1,1.1,0.3l-0.4,1
			c-0.3-0.2-0.5-0.2-0.8-0.2c-0.2,0-0.4,0.1-0.6,0.2c-0.2,0.1-0.3,0.3-0.4,0.6c-0.1,0.4-0.2,0.8-0.2,1.2v3.2H180.6z"/>
		<path class="st1" d="M188.6,106.1c-0.4,0.3-0.8,0.6-1.1,0.7c-0.4,0.1-0.7,0.2-1.2,0.2c-0.7,0-1.2-0.2-1.6-0.5
			c-0.4-0.3-0.5-0.8-0.5-1.3c0-0.3,0.1-0.6,0.2-0.8c0.1-0.2,0.3-0.5,0.5-0.6c0.2-0.2,0.5-0.3,0.8-0.3c0.2-0.1,0.5-0.1,0.9-0.2
			c0.8-0.1,1.5-0.2,1.9-0.4c0-0.1,0-0.2,0-0.3c0-0.4-0.1-0.7-0.3-0.9c-0.3-0.2-0.7-0.4-1.2-0.4c-0.5,0-0.9,0.1-1.1,0.3
			c-0.2,0.2-0.4,0.5-0.5,0.9l-1-0.1c0.1-0.4,0.2-0.8,0.5-1.1c0.2-0.3,0.5-0.5,0.9-0.6c0.4-0.1,0.9-0.2,1.4-0.2c0.5,0,1,0.1,1.3,0.2
			c0.3,0.1,0.6,0.3,0.7,0.5c0.2,0.2,0.3,0.4,0.3,0.7c0,0.2,0.1,0.5,0.1,1v1.4c0,1,0,1.6,0.1,1.9c0,0.3,0.1,0.5,0.3,0.7h-1.1
			C188.7,106.7,188.7,106.4,188.6,106.1z M188.5,103.8c-0.4,0.2-1,0.3-1.7,0.4c-0.4,0.1-0.7,0.1-0.9,0.2c-0.2,0.1-0.3,0.2-0.4,0.3
			c-0.1,0.1-0.1,0.3-0.1,0.5c0,0.3,0.1,0.5,0.3,0.7c0.2,0.2,0.5,0.3,0.9,0.3c0.4,0,0.8-0.1,1.1-0.3c0.3-0.2,0.5-0.4,0.7-0.7
			c0.1-0.2,0.2-0.6,0.2-1V103.8z"/>
		<path class="st1" d="M191.2,106.9v-8.6h1v8.6H191.2z"/>
		<path class="st1" d="M197.3,106.9v-8.6h2.9c0.7,0,1.2,0,1.5,0.1c0.5,0.1,0.9,0.3,1.3,0.6c0.5,0.4,0.8,0.9,1,1.5
			c0.2,0.6,0.3,1.3,0.3,2c0,0.6-0.1,1.2-0.2,1.7c-0.2,0.5-0.3,0.9-0.6,1.2c-0.2,0.3-0.5,0.6-0.8,0.8s-0.6,0.3-1,0.4
			c-0.4,0.1-0.9,0.1-1.4,0.1H197.3z M198.5,105.9h1.8c0.6,0,1-0.1,1.3-0.2c0.3-0.1,0.6-0.3,0.8-0.4c0.3-0.3,0.5-0.6,0.6-1.1
			c0.1-0.5,0.2-1,0.2-1.6c0-0.9-0.1-1.6-0.4-2.1s-0.7-0.8-1.1-1c-0.3-0.1-0.8-0.2-1.5-0.2h-1.8V105.9z"/>
		<path class="st1" d="M210.1,104.9l1.1,0.1c-0.2,0.6-0.5,1.1-1,1.5c-0.5,0.3-1.1,0.5-1.8,0.5c-0.9,0-1.6-0.3-2.2-0.8
			c-0.5-0.6-0.8-1.3-0.8-2.3c0-1,0.3-1.9,0.8-2.4c0.5-0.6,1.2-0.9,2.1-0.9c0.8,0,1.5,0.3,2,0.8c0.5,0.6,0.8,1.4,0.8,2.4
			c0,0.1,0,0.2,0,0.3h-4.6c0,0.7,0.2,1.2,0.6,1.6c0.3,0.4,0.8,0.5,1.3,0.5c0.4,0,0.7-0.1,1-0.3C209.7,105.7,209.9,105.4,210.1,104.9
			z M206.6,103.2h3.5c0-0.5-0.2-0.9-0.4-1.2c-0.3-0.4-0.8-0.6-1.3-0.6c-0.5,0-0.9,0.2-1.2,0.5C206.8,102.2,206.7,102.7,206.6,103.2z
			"/>
		<path class="st1" d="M212,105.1l1-0.2c0.1,0.4,0.2,0.7,0.5,1c0.3,0.2,0.6,0.3,1.1,0.3c0.5,0,0.8-0.1,1.1-0.3s0.4-0.4,0.4-0.7
			c0-0.2-0.1-0.4-0.3-0.6c-0.1-0.1-0.5-0.2-1.1-0.4c-0.8-0.2-1.3-0.4-1.6-0.5c-0.3-0.1-0.5-0.3-0.7-0.6c-0.2-0.2-0.2-0.5-0.2-0.8
			c0-0.3,0.1-0.5,0.2-0.8c0.1-0.2,0.3-0.4,0.5-0.6c0.2-0.1,0.4-0.2,0.7-0.3c0.3-0.1,0.6-0.1,0.9-0.1c0.5,0,0.9,0.1,1.3,0.2
			c0.4,0.1,0.6,0.3,0.8,0.6c0.2,0.2,0.3,0.6,0.4,1l-1,0.1c0-0.3-0.2-0.6-0.4-0.7s-0.5-0.3-0.9-0.3c-0.5,0-0.8,0.1-1,0.2
			c-0.2,0.2-0.3,0.3-0.3,0.6c0,0.1,0,0.3,0.1,0.4c0.1,0.1,0.2,0.2,0.4,0.3c0.1,0,0.4,0.1,0.9,0.3c0.7,0.2,1.3,0.4,1.6,0.5
			c0.3,0.1,0.5,0.3,0.7,0.6c0.2,0.2,0.3,0.5,0.3,0.9c0,0.4-0.1,0.7-0.3,1c-0.2,0.3-0.5,0.5-0.9,0.7c-0.4,0.2-0.8,0.3-1.3,0.3
			c-0.8,0-1.4-0.2-1.8-0.5C212.4,106.2,212.2,105.7,212,105.1z"/>
		<path class="st1" d="M218.4,99.6v-1.2h1v1.2H218.4z M218.4,106.9v-6.2h1v6.2H218.4z"/>
		<path class="st1" d="M220.9,107.4l1,0.2c0,0.3,0.2,0.5,0.4,0.7c0.3,0.2,0.6,0.3,1.1,0.3c0.5,0,0.9-0.1,1.1-0.3s0.4-0.5,0.5-0.8
			c0.1-0.2,0.1-0.7,0.1-1.3c-0.5,0.5-1,0.8-1.7,0.8c-0.9,0-1.5-0.3-2-0.9s-0.7-1.4-0.7-2.2c0-0.6,0.1-1.1,0.3-1.6
			c0.2-0.5,0.5-0.9,0.9-1.2c0.4-0.3,0.9-0.4,1.4-0.4c0.7,0,1.3,0.3,1.8,0.9v-0.7h1v5.4c0,1-0.1,1.6-0.3,2s-0.5,0.7-0.9,1
			s-1,0.3-1.6,0.3c-0.7,0-1.3-0.2-1.8-0.5C221.1,108.6,220.9,108.1,220.9,107.4z M221.8,103.7c0,0.8,0.2,1.4,0.5,1.8
			c0.3,0.4,0.7,0.6,1.2,0.6c0.5,0,0.9-0.2,1.2-0.6c0.3-0.4,0.5-1,0.5-1.7c0-0.8-0.2-1.3-0.5-1.7c-0.3-0.4-0.7-0.6-1.2-0.6
			c-0.5,0-0.9,0.2-1.2,0.6C221.9,102.4,221.8,103,221.8,103.7z"/>
		<path class="st1" d="M227.7,106.9v-6.2h0.9v0.9c0.5-0.7,1.1-1,2-1c0.4,0,0.7,0.1,1,0.2c0.3,0.1,0.5,0.3,0.7,0.5s0.3,0.5,0.3,0.8
			c0,0.2,0.1,0.5,0.1,1v3.8h-1v-3.8c0-0.4,0-0.7-0.1-1c-0.1-0.2-0.2-0.4-0.4-0.5c-0.2-0.1-0.5-0.2-0.7-0.2c-0.4,0-0.8,0.1-1.2,0.4
			c-0.3,0.3-0.5,0.8-0.5,1.6v3.4H227.7z"/>
		<path class="st1" d="M237.6,102.7c0-0.4,0.1-0.8,0.4-1c0.3-0.3,0.6-0.4,1-0.4c0.4,0,0.8,0.1,1,0.4c0.3,0.3,0.4,0.6,0.4,1
			c0,0.4-0.1,0.8-0.4,1c-0.3,0.3-0.6,0.4-1,0.4c-0.4,0-0.8-0.1-1-0.4C237.7,103.5,237.6,103.1,237.6,102.7z"/>
		<path class="st1" d="M245.3,106.9v-8.6h2.9c0.7,0,1.2,0,1.5,0.1c0.5,0.1,0.9,0.3,1.3,0.6c0.5,0.4,0.8,0.9,1,1.5
			c0.2,0.6,0.3,1.3,0.3,2c0,0.6-0.1,1.2-0.2,1.7c-0.2,0.5-0.3,0.9-0.6,1.2c-0.2,0.3-0.5,0.6-0.8,0.8s-0.6,0.3-1,0.4
			c-0.4,0.1-0.9,0.1-1.4,0.1H245.3z M246.5,105.9h1.8c0.6,0,1-0.1,1.3-0.2c0.3-0.1,0.6-0.3,0.8-0.4c0.3-0.3,0.5-0.6,0.6-1.1
			c0.1-0.5,0.2-1,0.2-1.6c0-0.9-0.1-1.6-0.4-2.1s-0.7-0.8-1.1-1c-0.3-0.1-0.8-0.2-1.5-0.2h-1.8V105.9z"/>
		<path class="st1" d="M254,106.9v-8.6h6.2v1h-5.1v2.6h4.7v1h-4.7v2.9h5.2v1H254z M256.3,97.8l0.8-1.6h1.4l-1.3,1.6H256.3z"/>
		<path class="st1" d="M265.8,104.6l1,0.1c-0.1,0.7-0.4,1.3-0.9,1.7s-1,0.6-1.7,0.6c-0.8,0-1.5-0.3-2-0.8c-0.5-0.6-0.8-1.3-0.8-2.4
			c0-0.7,0.1-1.3,0.3-1.8c0.2-0.5,0.6-0.9,1-1.1s0.9-0.4,1.5-0.4c0.7,0,1.2,0.2,1.7,0.5c0.4,0.3,0.7,0.8,0.8,1.4l-1,0.2
			c-0.1-0.4-0.3-0.7-0.5-0.9c-0.2-0.2-0.5-0.3-0.9-0.3c-0.5,0-1,0.2-1.3,0.6c-0.3,0.4-0.5,1-0.5,1.8c0,0.8,0.2,1.4,0.5,1.8
			c0.3,0.4,0.7,0.6,1.2,0.6c0.4,0,0.8-0.1,1-0.4S265.8,105.2,265.8,104.6z"/>
		<path class="st1" d="M267.4,103.8c0-1.1,0.3-2,1-2.5c0.5-0.5,1.2-0.7,1.9-0.7c0.9,0,1.5,0.3,2.1,0.8c0.5,0.6,0.8,1.3,0.8,2.3
			c0,0.8-0.1,1.4-0.4,1.9s-0.6,0.8-1,1.1s-1,0.4-1.5,0.4c-0.9,0-1.6-0.3-2.1-0.8C267.6,105.7,267.4,104.9,267.4,103.8z M268.5,103.8
			c0,0.8,0.2,1.4,0.5,1.8c0.3,0.4,0.8,0.6,1.3,0.6c0.5,0,1-0.2,1.3-0.6c0.3-0.4,0.5-1,0.5-1.8c0-0.8-0.2-1.3-0.5-1.7
			c-0.3-0.4-0.8-0.6-1.3-0.6c-0.5,0-1,0.2-1.3,0.6C268.6,102.4,268.5,103,268.5,103.8z"/>
		<path class="st1" d="M274.4,106.9v-6.2h0.9v0.9c0.2-0.4,0.5-0.7,0.7-0.9c0.2-0.1,0.4-0.2,0.7-0.2c0.4,0,0.7,0.1,1.1,0.3l-0.4,1
			c-0.3-0.2-0.5-0.2-0.8-0.2c-0.2,0-0.4,0.1-0.6,0.2c-0.2,0.1-0.3,0.3-0.4,0.6c-0.1,0.4-0.2,0.8-0.2,1.2v3.2H274.4z"/>
	</g>
</g>
<g>
	<g>
		<path class="st2" d="M65.4,23.4c-1.3-2-3.2-4.3-4.7-5.6c-2.8-2.5-3.1-3.5-3.1-3.5c0.8-2.1,0.9-3.9,0.9-3.9l-0.9-0.9
			c-1.8,5.6-3.6,7.2-4,7.5c-0.4-0.3-2.3-1.8-4-7.5l-0.9,0.9c0,0,0.1,1.8,0.9,3.9c0,0-0.3,1-3.1,3.5C45.2,19,43.4,21.1,42,23
			c-1.9,2.3-3,5.2-3,8.5c0,7.9,6.5,13.7,14.6,13.7s14.6-5.8,14.6-13.7C68.1,28.4,67.1,25.6,65.4,23.4z M57.2,15.8c0,0,0.8,1.6,2,3
			c-1-0.4-2-0.6-3-0.8c0.1-0.2,0.3-0.5,0.4-0.8C57,16.2,57.2,15.8,57.2,15.8z M50.1,15.8c0,0,0.2,0.4,0.6,1.4
			c0.1,0.3,0.3,0.6,0.4,0.8c-1,0.2-2,0.4-3,0.8C49.3,17.3,50.1,15.8,50.1,15.8z M53.6,42.9c-6.8,0-11.7-4.9-11.7-11.4
			c0-2.6,0.8-4.9,2.1-6.7c0.8-1,2-2,3-2.7c2.6-1.8,6-1.9,6.6-1.9s4,0.2,6.6,1.9c0.6,0.4,1.3,0.9,1.9,1.5c1.9,2,3.1,4.8,3.1,7.9
			C65.3,38,60.3,42.9,53.6,42.9z"/>
	</g>
	<g>
		<g>
			<path class="st2" d="M3.3,15.9h0.2l13.3,16.6L30.1,16h0.2v28.9h-2.6V22.6L16.8,36.3h-0.2L5.8,22.6v22.3H3.2L3.3,15.9L3.3,15.9z"
				/>
			<path class="st2" d="M79.4,22.6v22.3h-2.5v-29h0.3l19.1,22.9V16.5h2.5v29h-0.3L79.4,22.6z"/>
			<path class="st2" d="M109.5,16.5h2.8v28.4h-2.8V16.5z"/>
			<path class="st2" d="M121.1,30.7c0-8.4,6.3-14.5,14.3-14.5c4.8,0,8.6,2,11.1,5.3l-2.1,1.5c-2.1-2.8-5.1-4.3-9.1-4.3
				c-6.6,0-11.5,5.2-11.5,12.1c0,7,5,12.1,11.7,12.1c4.1,0,7.4-1.7,9.6-4.7l2.1,1.5c-2.8,3.7-6.8,5.7-11.8,5.7
				C127.4,45.2,121.1,39.1,121.1,30.7z"/>
			<path class="st2" d="M155.8,44.9h-2.7l11.9-29h0.2l12,29h-2.8l-2-4.9h-14.6L155.8,44.9z M165.1,21.8l-6.4,15.7h12.7L165.1,21.8z"
				/>
			<path class="st2" d="M198,16.5h9.3c5.3,0,8,3.1,8,7c0,2.7-1.3,4.6-3.6,5.7c3.6,1,5.9,3.7,5.9,7.5c0,4.6-3,8.3-9.1,8.3H198V16.5z
				 M207.5,28.2c3.6,0,5-2,5-4.7c0-2.6-1.5-4.6-5.4-4.6h-6.4v9.3H207.5z M208.1,42.5c4.7,0,6.6-2.5,6.6-5.9c0-3.5-2.1-6-6.7-6h-7.3
				v11.9H208.1z"/>
			<path class="st2" d="M243.4,44.9h-3.3l-5.6-7.3c-0.8,0.1-1.5,0.2-2.3,0.2h-3.5v7.1H226V16.5h6.2c7.7,0,11.7,4.5,11.7,10.7
				c0,4.5-2.3,8.3-6.6,9.8L243.4,44.9z M232,35.4c6.5,0,9.1-3.5,9.1-8.2c0-4.8-2.6-8.3-9.1-8.3h-3.3v16.5H232z"/>
			<path class="st2" d="M250.3,30.7c0-8.4,6.5-14.5,14.6-14.5s14.6,6.1,14.6,14.5s-6.5,14.5-14.6,14.5S250.3,39.1,250.3,30.7z
				 M276.6,30.7c0-6.9-5-12.1-11.7-12.1c-6.8,0-11.7,5.2-11.7,12.1s5,12.1,11.7,12.1C271.6,42.8,276.6,37.6,276.6,30.7z"/>
			<path class="st2" d="M284.4,16.5h2.8l6.9,22.1l8.6-22.7h0.2l8.6,22.7l6.9-22.1h2.7l-9.3,28.9h-0.2l-8.7-23.1L294,45.4h-0.2
				L284.4,16.5z"/>
			<path class="st2" d="M332.7,22.6v22.3h-2.5v-29h0.3l19.1,22.9V16.5h2.5v29h-0.2L332.7,22.6z"/>
			<path class="st2" d="M362.7,16.5h17.1v2.4h-14.4v14.2h12.8v2.4h-12.8v7h15v2.4h-17.7L362.7,16.5L362.7,16.5z"/>
		</g>
	</g>
	<g>
		<g>
			<path class="st1" d="M85.9,59.4h2.2l5.4,17.1l6.6-17.6h0.2l6.6,17.6l5.3-17.1h2.1l-7.2,22.4h-0.2L100.2,64l-6.8,17.8h-0.1
				L85.9,59.4z"/>
			<path class="st1" d="M125.8,59.4H139v1.9h-11.1v11h9.9v1.8h-9.9v5.4h11.6v1.9h-13.7V59.4z"/>
			<path class="st1" d="M151.6,59.4h5.5c7.3,0,11.6,4.5,11.6,11s-4.3,11-11.6,11h-5.5V59.4z M156.9,79.4c6.5,0,9.6-3.7,9.6-9.1
				c0-5.3-3.1-9.1-9.6-9.1h-3.2v18.1L156.9,79.4L156.9,79.4z"/>
			<path class="st1" d="M179.4,59.4h5.5c7.3,0,11.6,4.5,11.6,11s-4.3,11-11.6,11h-5.5V59.4z M184.7,79.4c6.5,0,9.6-3.7,9.6-9.1
				c0-5.3-3.1-9.1-9.6-9.1h-3.2v18.1L184.7,79.4L184.7,79.4z"/>
			<path class="st1" d="M206.7,59.4h2.1v21.9h-2.1V59.4z"/>
			<path class="st1" d="M224.9,64.1v17.3h-2V58.9h0.2l14.8,17.7V59.4h2v22.4h-0.2L224.9,64.1z"/>
			<path class="st1" d="M251.2,70.4c0-6.5,5-11.2,11.1-11.2c3.8,0,6.4,1.4,8.3,3.4l-1.5,1.4c-1.5-1.7-3.5-2.9-6.8-2.9
				c-5.1,0-8.9,4-8.9,9.3s3.8,9.3,9.3,9.3c3.2,0,5.3-0.9,6.7-2.1v-3.5h-6.6v-1.9h8.6v6.3c-2,1.8-4.6,3.1-8.7,3.1
				C256.2,81.6,251.2,76.9,251.2,70.4z"/>
			<path class="st1" d="M282.9,76.2c1.2,2.2,3.2,3.5,5.7,3.5c3,0,4.8-1.5,4.8-3.8c0-2.4-1.5-3.5-4.1-4.7l-1.8-0.8
				c-3.2-1.5-5.1-2.9-5.1-6c0-3.1,2.4-5.2,5.6-5.2c2.7,0,4.6,1,6,3.2l-1.6,1c-1-1.6-2.4-2.4-4.4-2.4c-2.2,0-3.6,1.4-3.6,3.3
				c0,2.1,1.2,2.9,3.9,4.1l1.8,0.8c3.5,1.7,5.4,3.3,5.4,6.6c0,3.6-2.7,5.7-6.8,5.7c-3.6,0-6.1-1.7-7.6-4.4L282.9,76.2z"/>
		</g>
	</g>
	<path class="st1" d="M53.7,13.6c2.9-2.5,5.2-5.4,6.9-8.4c-0.9-0.7-1.7-1.5-2.5-2.2l0,0c0-0.2-1.9-0.4-4.3-0.4S49.5,2.8,49.4,3l0,0
		c-0.8,0.8-1.7,1.6-2.6,2.3C48.5,8.2,50.9,11,53.7,13.6"/>
</g>
<g>
</g>
<g>
</g>
<g>
</g>
<g>
</g>
<g>
</g>
<g>
</g>
<g>
</g>
<g>
</g>
<g>
</g>
<g>
</g>
<g>
</g>
<g>
</g>
<g>
</g>
<g>
</g>
<g>
</g>
</svg>
