<?xml version="1.0" encoding="utf-8"?>
<!-- Generator: Adobe Illustrator 17.1.0, SVG Export Plug-In . SVG Version: 6.00 Build 0)  -->
<!DOCTYPE svg PUBLIC "-//W3C//DTD SVG 1.1//EN" "http://www.w3.org/Graphics/SVG/1.1/DTD/svg11.dtd">
<svg version="1.1" id="Layer_1" xmlns="http://www.w3.org/2000/svg" xmlns:xlink="http://www.w3.org/1999/xlink" x="0px" y="0px"
	 viewBox="0 0 201.3 62.3" enable-background="new 0 0 201.3 62.3" xml:space="preserve">
<g>
	<g>
		<path fill="#B5AEA8" d="M73.2,27.7c-1.5-2.4-3.5-5-5.2-6.5c-3.2-3-3.4-4.1-3.4-4.1c0.9-2.5,1-4.6,1-4.6l-1-1
			c-1.9,6.5-4,8.4-4.5,8.7c-0.5-0.3-2.5-2.2-4.5-8.7l-1,1c0,0,0.1,2.1,1,4.6c0,0-0.3,1.1-3.4,4.1c-1.5,1.4-3.5,3.8-4.9,6.1
			c-2.1,2.6-3.3,6.1-3.3,9.8c0,9.3,7.2,16,16.3,16s16.3-6.8,16.3-16C76.3,33.6,75.1,30.2,73.2,27.7z M64,18.8c0,0,0.8,1.8,2.3,3.5
			c-1-0.5-2.2-0.7-3.4-0.9c0.1-0.2,0.3-0.6,0.5-0.9C63.8,19.3,64,18.8,64,18.8z M56.1,18.8c0,0,0.2,0.6,0.7,1.7
			c0.1,0.3,0.3,0.7,0.5,0.9c-1.1,0.2-2.3,0.5-3.3,0.9C55.2,20.6,56.1,18.8,56.1,18.8z M60,50.4c-7.6,0-13.1-5.7-13.1-13.3
			c0-3,0.9-5.7,2.4-7.9c0.9-1.1,2.3-2.3,3.3-3.1c3-2.1,6.8-2.3,7.4-2.3c0.7,0,4.5,0.2,7.4,2.3c0.7,0.5,1.5,1,2.2,1.7
			c2.2,2.4,3.4,5.6,3.4,9.3C73.1,44.7,67.6,50.4,60,50.4z"/>
	</g>
	<g>
		<g>
			<g>
				<g>
					<path fill="#B5AEA8" d="M3.9,18.9h0.2l14.9,19.3l14.8-19.3H34v33.8h-2.9v-26l-12.1,16h-0.2l-12-16v26H3.9V18.9z"/>
				</g>
			</g>
			<g>
				<g>
					<path fill="#B5AEA8" d="M88.8,26.7v26.1h-2.9V19h0.2l21.3,26.8V19.7h2.9v33.8h-0.2L88.8,26.7z"/>
				</g>
			</g>
			<g>
				<g>
					<path fill="#B5AEA8" d="M122.4,19.6h3.1v33.1h-3.1V19.6z"/>
				</g>
			</g>
			<g>
				<g>
					<path fill="#B5AEA8" d="M135.4,36.2c0-9.8,7-16.9,16-16.9c5.4,0,9.6,2.3,12.4,6.2l-2.3,1.7c-2.4-3.2-5.7-5-10.2-5
						c-7.3,0-12.8,6.1-12.8,14.1c0,8.1,5.5,14.1,13.1,14.1c4.6,0,8.2-1.9,10.8-5.5l2.4,1.7c-3.1,4.2-7.6,6.6-13.2,6.6
						C142.3,53.1,135.4,46,135.4,36.2z"/>
				</g>
			</g>
			<g>
				<g>
					<path fill="#B5AEA8" d="M174.1,52.8h-3l13.3-33.9h0.2L198,52.8h-3.1l-2.2-5.7h-16.4L174.1,52.8z M184.5,25.8l-7.1,18.3h14.2
						L184.5,25.8z"/>
				</g>
			</g>
		</g>
	</g>
	<path fill="#E7E2DF" d="M60.3,16.2c3.2-3,5.8-6.3,7.7-9.8c-1-0.8-1.9-1.7-2.7-2.6l0,0c0-0.2-2.2-0.5-4.8-0.5
		c-2.6,0-4.8,0.2-4.9,0.5l0,0c-0.9,0.9-1.8,1.8-2.9,2.6C54.4,9.9,57.1,13.2,60.3,16.2"/>
</g>
</svg>
