<?xml version="1.0" encoding="utf-8"?>
<!-- Generator: Adobe Illustrator 19.1.0, SVG Export Plug-In . SVG Version: 6.00 Build 0)  -->
<svg version="1.1" id="Layer_1" xmlns="http://www.w3.org/2000/svg" xmlns:xlink="http://www.w3.org/1999/xlink" x="0px" y="0px"
	 viewBox="-146 -4.6 750 321.6" style="enable-background:new -146 -4.6 750 321.6;" xml:space="preserve">
<style type="text/css">
	.st0{opacity:0.5;fill:#E7E2DF;enable-background:new    ;}
	.st1{fill:#B5AEA8;}
	.st2{fill:#FFFFFF;}
	.st3{font-family:'ArialMT';}
	.st4{font-size:44.8871px;}
</style>
<polygon class="st0" points="604,313.1 -141.5,313.1 -52.4,163.1 -141.5,-4.6 604,-4.6 "/>
<g>
	<g>
		<path class="st1" d="M83.1,74.1c-5.1-3.3-12-6.9-17.1-8.6c-9.1-2.9-10.9-5.1-10.9-5.1c-0.7-5.8-1.8-10.2-1.8-10.2L50.6,49
			c1.8,15.5-1.1,21-1.8,22.2c-1.1-0.7-7.3-2.2-17.7-13.7l-0.9,2.9c0,0,2.2,4,6.2,8.6c0,0,0.7,2.2-4,11.3c-1.8,4.7-4,11.3-5.1,17.1
			c-2.2,7.3-1.8,15.5,1.8,23.5c8.6,18.8,29.7,25.7,49,17.7c19.5-8.6,28.6-29,20.6-47.9C95.1,83.1,90,78,83.1,74.1z M55.9,64.3
			c0,0,3.3,2.9,8,5.1c-2.9,0-5.1,0.7-8,1.1c0-0.7,0-1.8,0-2.2C55.9,66.1,55.9,64.3,55.9,64.3z M38.6,72.3c0,0,1.1,1.1,2.9,2.9
			c0.7,0.7,1.1,1.1,1.8,1.8c-2.2,1.8-4.7,2.9-6.2,5.1C38.6,76.9,38.6,72.3,38.6,72.3z M75.2,133.4c-16,7.3-33,0.7-39.9-14.8
			c-2.9-6.2-2.9-12.6-1.8-18.2c1.1-3.3,2.9-6.9,4.7-9.1c4.7-6.9,12.6-10.9,13.7-11.3c1.8-0.7,9.7-4,17.7-2.2c1.8,0.7,4,1.1,6.2,1.8
			c6.9,2.9,12.6,8,15.5,15.5C98,109.5,91.8,125.9,75.2,133.4z"/>
	</g>
	<path class="st2" d="M45,63.2c4-9.1,6.9-18.2,8-27.5c-2.9-0.7-5.8-1.8-8.6-2.9l0,0c-0.7-0.7-5.1,1.1-10.9,3.3
		c-5.8,2.2-10.2,5.1-9.7,5.8l0,0c-1.1,2.9-2.2,5.8-4,8C27.3,55.9,36,59.9,45,63.2"/>
</g>
<g>
	<text transform="matrix(1 0 0 1 176.2051 79.1065)" class="st1 st3 st4">JOIN OUR</text>
	<text transform="matrix(1 0 0 1 123.8129 133.0543)" class="st1 st3 st4">MAILING LIST</text>
</g>
</svg>
