<?xml version="1.0" encoding="utf-8"?>
<!-- Generator: Adobe Illustrator 17.1.0, SVG Export Plug-In . SVG Version: 6.00 Build 0)  -->
<!DOCTYPE svg PUBLIC "-//W3C//DTD SVG 1.1//EN" "http://www.w3.org/Graphics/SVG/1.1/DTD/svg11.dtd">
<svg version="1.1" id="Layer_1" xmlns="http://www.w3.org/2000/svg" xmlns:xlink="http://www.w3.org/1999/xlink" x="0px" y="0px"
	 viewBox="0 0 26.2 33.6" enable-background="new 0 0 26.2 33.6" xml:space="preserve">
<g>
	<g>
		<path fill="#B5AEA8" d="M19.6,13.1c-1.5-1-3.6-2-4.9-2.5c-2.7-0.9-3.2-1.5-3.2-1.5c-0.1-1.7-0.5-3-0.5-3L10,5.7
			c0.5,4.5-0.4,6.1-0.5,6.5c-0.4-0.1-2.2-0.6-5.1-4L4,9.1c0,0,0.6,1.2,1.8,2.5c0,0,0.1,0.7-1.1,3.4c-0.5,1.3-1.2,3.3-1.5,5
			c-0.6,2.2-0.5,4.6,0.5,6.8c2.5,5.6,8.7,7.6,14.3,5.1c5.6-2.5,8.4-8.5,5.9-14C23,15.7,21.5,14.2,19.6,13.1z M11.6,10.2
			c0,0,1,0.9,2.4,1.5c-0.8,0-1.5,0.2-2.4,0.4c0-0.2,0-0.5,0-0.7C11.6,10.6,11.6,10.2,11.6,10.2z M6.6,12.4c0,0,0.3,0.3,0.8,0.8
			c0.2,0.2,0.4,0.3,0.5,0.5c-0.6,0.5-1.3,0.9-1.8,1.5C6.6,13.8,6.6,12.4,6.6,12.4z M17.3,30.3c-4.7,2.1-9.7,0.2-11.7-4.4
			c-0.8-1.8-0.9-3.6-0.5-5.4c0.3-1,0.8-2,1.3-2.7c1.3-2,3.6-3.2,4-3.4c0.5-0.2,2.8-1.1,5.2-0.6c0.5,0.1,1.2,0.3,1.8,0.5
			c2,0.8,3.6,2.4,4.6,4.6C24,23.3,22,28.2,17.3,30.3z"/>
	</g>
	<path fill="#FFFFFF" d="M8.5,9.8c1.2-2.6,2-5.4,2.3-7.9C9.9,1.7,9.1,1.4,8.3,1l0,0C8.2,0.9,6.8,1.3,5.1,2c-1.6,0.7-3,1.5-2.9,1.6
		l0,0C1.9,4.5,1.4,5.3,1.1,6.1C3.2,7.6,5.7,8.9,8.5,9.8"/>
</g>
</svg>
