<?xml version="1.0" encoding="utf-8"?>
<!-- Generator: Adobe Illustrator 17.1.0, SVG Export Plug-In . SVG Version: 6.00 Build 0)  -->
<!DOCTYPE svg PUBLIC "-//W3C//DTD SVG 1.1//EN" "http://www.w3.org/Graphics/SVG/1.1/DTD/svg11.dtd">
<svg version="1.1" id="Layer_1" xmlns="http://www.w3.org/2000/svg" xmlns:xlink="http://www.w3.org/1999/xlink" x="0px" y="0px"
	 viewBox="0 0 26.8 26.3" enable-background="new 0 0 26.8 26.3" xml:space="preserve">
<g>
	<g>
		<g>
			<path fill="#B5AEA8" d="M25.3,3.2c-1,0.5-2.1,1-3.3,1.2c-0.9-1-2.3-1.5-3.7-1.5c-2.8,0-5.1,2.3-5.1,5c0,0.4,0,0.8,0.1,1.2
				C9,8.9,5.3,6.9,2.7,3.8C2.2,4.5,2,5.4,2,6.3c0,1.7,0.9,3.3,2.3,4.2c-0.8,0-1.6-0.3-2.3-0.6c0,0,0,0,0,0.1c0,2.5,1.7,4.5,4.1,4.9
				c-0.5,0.1-0.9,0.2-1.4,0.2c-0.4,0-0.6,0-1-0.1c0.6,2,2.6,3.5,4.8,3.5c-1.7,1.4-3.9,2.2-6.4,2.2c-0.5,0-0.8,0-1.2-0.1
				c2.3,1.5,4.9,2.3,7.8,2.3c9.4,0,14.6-7.7,14.6-14.4c0-0.2,0-0.5,0-0.6c1-0.7,1.9-1.6,2.6-2.6C25,5.5,24,5.8,23,6
				C24.1,5.4,24.9,4.4,25.3,3.2z"/>
		</g>
	</g>
</g>
<g>
	<g>
		<g>
			<path fill="#B5AEA8" d="M-74.6,23.6h4.3c0,0,0-5.9,0-10.8h3.2l0.4-4.3h-3.4V6.8c0-0.8,0.5-1,0.9-1s2.4,0,2.4,0V2.2h-3.3
				c-3.6,0-4.6,2.7-4.6,4.5v1.9h-2.1v4.3h2.2C-74.6,17.7-74.6,23.6-74.6,23.6z"/>
		</g>
	</g>
</g>
<g>
	<g>
		<g>
			<path fill="#B5AEA8" d="M50.4,24.1c0,0.2,0.3,0.2,0.4,0.1c0.1-0.2,1.8-2.2,2.5-4.3c0.2-0.5,0.9-3.6,0.9-3.6
				c0.5,0.9,1.8,1.6,3.3,1.6c4.4,0,7.3-3.8,7.3-9c0-3.9-3.4-7.5-8.6-7.5c-6.5,0-9.7,4.5-9.7,8.2c0,2.3,0.9,4.3,2.7,5
				c0.3,0.1,0.5,0,0.6-0.4c0.1-0.3,0.2-0.8,0.3-1.1c0.1-0.4,0.1-0.5-0.2-0.7c-0.5-0.6-0.9-1.5-0.9-2.6c0-3.3,2.6-6.3,6.7-6.3
				c3.6,0,5.6,2.2,5.6,5c0,3.7-1.7,6.9-4.3,6.9c-1.5,0-2.5-1.1-2.1-2.6c0.4-1.6,1.2-3.5,1.2-4.6c0-1.1-0.6-2-1.8-2
				c-1.5,0-2.6,1.5-2.6,3.4c0,1.3,0.5,2.1,0.5,2.1s-1.5,6.1-1.7,7.1C50,21.3,50.4,23.8,50.4,24.1z"/>
		</g>
	</g>
</g>
<g>
	<g>
		<g>
			<path fill="#B5AEA8" d="M-24.5,1.8h-13.6c-2.4,0-4.3,1.9-4.3,4.3v4.6v9.1c0,2.4,1.9,4.3,4.3,4.3h13.6c2.4,0,4.3-1.9,4.3-4.3v-9.1
				V6.1C-20.3,3.7-22.2,1.8-24.5,1.8z M-23.3,4.3h0.5v0.5v3.3h-3.7V4.3H-23.3z M-34.5,10.6c0.7-1,1.8-1.6,3.2-1.6s2.5,0.6,3.2,1.6
				c0.5,0.6,0.7,1.5,0.7,2.3c0,2.2-1.7,3.9-3.9,3.9c-2.2,0-3.9-1.7-3.9-3.9C-35.2,12-34.9,11.3-34.5,10.6z M-22.4,19.6
				c0,1.2-0.9,2.1-2.1,2.1h-13.6c-1.2,0-2.1-0.9-2.1-2.1v-9.1h3.3c-0.3,0.7-0.5,1.5-0.5,2.3c0,3.4,2.7,6,6,6c3.4,0,6-2.7,6-6
				c0-0.8-0.2-1.5-0.5-2.3h3.3L-22.4,19.6L-22.4,19.6z"/>
		</g>
	</g>
</g>
</svg>
